<?xml version="1.0" ?><!DOCTYPE svg  PUBLIC '-//W3C//DTD SVG 1.1//EN'  'http://www.w3.org/Graphics/SVG/1.1/DTD/svg11.dtd'><svg enable-background="new -27 24 100 100" height="100px" id="bboy" version="1.1" viewBox="-27 24 100 100" width="100px" xml:space="preserve" xmlns="http://www.w3.org/2000/svg" xmlns:sketch="http://www.bohemiancoding.com/sketch/ns" xmlns:xlink="http://www.w3.org/1999/xlink"><g><g><circle cx="23" cy="74" fill="#F5EEE5" r="50"/><g><defs><circle cx="23" cy="74" id="SVGID_1_" r="50"/></defs><clipPath id="SVGID_2_"><use overflow="visible" xlink:href="#SVGID_1_"/></clipPath><path clip-path="url(#SVGID_2_)" d="M36,97.9l7.1,1.8c7.6,2,22.8,5.9,22.8,5.9c3.2,1.1,5.7,3.5,7.1,6.6V124H-27      v-11.8c1.3-3.1,3.9-5.5,7.1-6.6c0,0,15.2-3.9,22.8-5.9c2.4-0.6,7.1-1.8,7.1-1.8V83h26V97.9z" fill="#E6C19C"/><g clip-path="url(#SVGID_2_)"><defs><path d="M36,97.9l7.1,1.8c7.6,2,22.8,5.9,22.8,5.9c3.2,1.1,5.7,3.5,7.1,6.6V124H-27v-11.8        c1.3-3.1,3.9-5.5,7.1-6.6c0,0,15.2-3.9,22.8-5.9c2.4-0.6,7.1-1.8,7.1-1.8V83h26V97.9z" id="SVGID_3_"/></defs><clipPath id="SVGID_4_"><use overflow="visible" xlink:href="#SVGID_3_"/></clipPath><path clip-path="url(#SVGID_4_)" d="M23.2,35l0.2,0l0,0c3.3,0,8.2,0.2,11.4,2c3.3,1.9,7.3,5.6,8.5,12.1       c2.4,13.7-2.1,35.4-6.3,42.4c-4,6.7-9.8,9.2-13.5,9.4l-0.1,0l-0.2,0l-0.2,0l-0.1,0c-3.7-0.2-9.5-2.7-13.5-9.4       c-4.2-7-8.7-28.7-6.3-42.4c1.2-6.5,5.2-10.2,8.5-12.1c3.2-1.8,8.1-2,11.4-2l0,0L23.2,35z" fill="#D4B08C"/><path clip-path="url(#SVGID_4_)" d="M-27,82H73v42H-27V82z M23,114c13.5-0.2,21-15,21-15S34,82,23,82S2,99,2,99       S9.5,114.2,23,114z" fill="#8EBF1D"/><path clip-path="url(#SVGID_4_)" d="M23,77C9.9,77-1.9,97.2-1.9,97.2s8.9,18,24.9,17.8s24.9-17.8,24.9-17.8       S36.1,77,23,77z M23,111C10.9,111,2.2,96.9,2.2,96.9S12,81,23,81s20.8,15.9,20.8,15.9S35.1,111,23,111z" fill="#70A619"/></g></g><path d="M22.8,44c19.1,0,20.7,12.8,20.8,14.1c1.1,11.9-3,25.1-6.8,30.7c-4,5.9-9.8,8.1-13.5,8.3     c-0.2,0-0.2,0-0.3,0l-0.2,0c-3.8-0.2-9.6-2.4-13.6-8.3c-3.8-5.6-7.9-18.8-6.8-30.8C2.5,56.7,3.7,44,22.8,44z" fill="#F2CEA5"/><path d="M23.1,86c-3.6,0-5.6-1-5.6-1c-0.3,0-0.4,0.4-0.3,0.7c0.3,1.8,2.3,4.3,6,4.3s5.6-2.5,5.9-4.3     c0.1-0.3,0-0.7-0.3-0.7C28.6,85,26.6,86,23.1,86z" fill="#A3705F"/><g><defs><rect height="5" id="SVGID_5_" width="31" x="7" y="68"/></defs><clipPath id="SVGID_6_"><use overflow="visible" xlink:href="#SVGID_5_"/></clipPath><circle clip-path="url(#SVGID_6_)" cx="32" cy="72" fill="#291F21" r="2"/><circle clip-path="url(#SVGID_6_)" cx="14" cy="72" fill="#291F21" r="2"/></g><path d="M9,68.4c1-1.6,2.7-2.4,4.3-2.4c2.5,0,5,0.6,6.5,2.1" fill="none" stroke="#CC9872" stroke-width="2"/><path d="M36.8,68.4c-1-1.6-2.7-2.4-4.3-2.4c-3.5,0-6.9,1.1-7.7,4.3S23,79,23,79" fill="none" stroke="#BB8660" stroke-width="2"/><path d="M43.1,70.8c0,0,0.7-3.4,2.6-4.4c1.3-5.5,1.4-7.4,1.4-8.3c0-2.9-0.3-5.7-1.9-8.1c-1.8-2.6-5.6-4.1-7.6-4.1     c-2.3,1.4-7.7,4.6-9.4,6.5c-0.9,1,0.4,1.8,0.4,1.8s4.6-6,4.9-2.7s9.8,11.6,9.8,11.6V70.8z" fill="#452228"/><path d="M-0.5,60.6c0,1,0.7,4.7,1.2,6.1C2.3,67.4,3,71.1,3,71.1v-8c6-1.7,12.8-5.1,16.7-10.3     c1.2,3.6-0.1,6.1-0.1,6.1s6.7,0.2,11.7-3.6c3-2.3,6.6-9.2,6.6-9.2s-1.8-7.9-15-6.8c-5.6,0.5-8.3,3.9-17.4,3c0,0,0.9,2.2,1.9,3.5     C3.4,47.6-0.5,52.7-0.5,60.6z" fill="#6B363E"/></g></g></svg>